<svg xmlns="http://www.w3.org/2000/svg" xmlns:xlink="http://www.w3.org/1999/xlink" width="500" zoomAndPan="magnify" viewBox="0 0 375 374.999991" height="500" preserveAspectRatio="xMidYMid meet" version="1.0"><defs><g/><clipPath id="b6967b7112"><path d="M 196.898438 87.679688 L 259.390625 87.679688 L 259.390625 185.109375 L 196.898438 185.109375 Z M 196.898438 87.679688 " clip-rule="nonzero"/></clipPath><clipPath id="57734766bc"><path d="M 115.402344 168 L 222 168 L 222 211 L 115.402344 211 Z M 115.402344 168 " clip-rule="nonzero"/></clipPath><clipPath id="e1efd38dea"><path d="M 153.269531 65.605469 L 259.390625 65.605469 L 259.390625 107.519531 L 153.269531 107.519531 Z M 153.269531 65.605469 " clip-rule="nonzero"/></clipPath><clipPath id="e6112e4651"><path d="M 115.402344 90 L 178 90 L 178 189 L 115.402344 189 Z M 115.402344 90 " clip-rule="nonzero"/></clipPath><clipPath id="5f502f35dd"><path d="M 177.753906 123.796875 L 240.527344 123.796875 L 240.527344 221.179688 L 177.753906 221.179688 Z M 177.753906 123.796875 " clip-rule="nonzero"/></clipPath><clipPath id="3564932d06"><path d="M 134 54.683594 L 197 54.683594 L 197 153 L 134 153 Z M 134 54.683594 " clip-rule="nonzero"/></clipPath><clipPath id="f9849bae0c"><path d="M 157.414062 111 L 214 111 L 214 163 L 157.414062 163 Z M 157.414062 111 " clip-rule="nonzero"/></clipPath><clipPath id="dedeb7a666"><path d="M 157.414062 111 L 213.546875 111 L 213.546875 163 L 157.414062 163 Z M 157.414062 111 " clip-rule="nonzero"/></clipPath><clipPath id="99b414b183"><path d="M 166.203125 114.332031 L 172.757812 120.347656 L 171.492188 124.429688 L 167.050781 125.589844 L 160.496094 119.566406 L 157.53125 122.289062 L 165.0625 132.261719 L 173.945312 130.710938 L 205.125 161.195312 C 209.902344 165.613281 216.34375 158.988281 211.875 155.214844 L 178.5625 126.28125 L 180.589844 118.03125 L 169.390625 111.402344 Z M 207.210938 157.0625 C 208.0625 156.28125 209.4375 156.28125 210.285156 157.0625 C 211.136719 157.839844 211.136719 159.105469 210.285156 159.886719 C 209.4375 160.660156 208.0625 160.660156 207.210938 159.886719 C 206.359375 159.105469 206.359375 157.839844 207.210938 157.0625 Z M 207.210938 157.0625 " clip-rule="nonzero"/></clipPath><clipPath id="a575f67b0d"><path d="M 157.414062 111 L 214 111 L 214 162 L 157.414062 162 Z M 157.414062 111 " clip-rule="nonzero"/></clipPath><clipPath id="81080529d2"><path d="M 158 110.121094 L 217.414062 110.121094 L 217.414062 162 L 158 162 Z M 158 110.121094 " clip-rule="nonzero"/></clipPath><clipPath id="c91b9efc87"><path d="M 183 110.121094 L 217.414062 110.121094 L 217.414062 137 L 183 137 Z M 183 110.121094 " clip-rule="nonzero"/></clipPath><clipPath id="8021ab87ad"><path d="M 191 110.121094 L 214 110.121094 L 214 131 L 191 131 Z M 191 110.121094 " clip-rule="nonzero"/></clipPath><clipPath id="5e9ce51803"><path d="M 158.398438 110.523438 L 217.085938 110.523438 L 217.085938 162 L 158.398438 162 Z M 158.398438 110.523438 " clip-rule="nonzero"/></clipPath><clipPath id="3ae722e8d9"><path d="M 183.089844 111.917969 L 183.472656 111.992188 C 187.945312 110.625 197.984375 116.003906 195.746094 120.800781 C 195.179688 121.550781 195.277344 122.890625 195.960938 123.730469 L 183.40625 135.261719 C 182.703125 134.617188 181.140625 134.628906 180.421875 135.261719 L 159.664062 153.558594 C 157.773438 155.226562 159.261719 156.644531 160.058594 157.390625 L 163.785156 160.808594 C 164.597656 161.554688 166.746094 162.558594 168.277344 161.070312 L 187.863281 142.109375 C 188.546875 141.449219 188.554688 140.035156 187.863281 139.382812 C 187.863281 139.382812 187.871094 139.375 187.863281 139.375 L 200.46875 127.804688 C 201.796875 128.90625 203.054688 129 204.246094 128.703125 C 206.546875 128.125 207.832031 130.191406 209.210938 131.703125 L 208.585938 132.265625 C 207.667969 133.121094 207.753906 134.5625 208.785156 135.507812 C 209.816406 136.457031 211.390625 136.535156 212.3125 135.691406 L 216.429688 131.914062 C 217.347656 131.058594 217.261719 129.617188 216.226562 128.675781 C 215.296875 127.816406 213.945312 127.703125 213.003906 128.316406 C 210.179688 125.410156 211.664062 124.972656 207.941406 121.183594 L 200.964844 114.640625 C 195.9375 110.113281 189.414062 110.117188 183.089844 111.917969 Z M 183.089844 111.917969 " clip-rule="nonzero"/></clipPath></defs><rect x="-37.5" width="450" fill="#ffffff" y="-37.499999" height="449.999989" fill-opacity="1"/><rect x="-37.5" width="450" fill="#ffffff" y="-37.499999" height="449.999989" fill-opacity="1"/><g clip-path="url(#b6967b7112)"><path fill="#6525e4" d="M 259.390625 118.3125 L 240.359375 107.308594 L 206.4375 87.695312 L 196.921875 93.195312 L 225.464844 109.699219 L 230.847656 112.8125 L 249.875 123.816406 L 249.875 185.058594 L 259.390625 179.554688 L 259.390625 118.3125 " fill-opacity="1" fill-rule="nonzero"/></g><g clip-path="url(#57734766bc)"><path fill="#6525e4" d="M 187.40625 199.171875 L 221.332031 179.554688 L 221.332031 168.550781 L 187.410156 188.167969 L 168.378906 199.171875 L 124.941406 174.054688 L 115.425781 168.550781 L 115.425781 179.554688 L 168.378906 210.175781 L 187.40625 199.171875 " fill-opacity="1" fill-rule="nonzero"/></g><g clip-path="url(#e1efd38dea)"><path fill="#6525e4" d="M 206.4375 65.6875 L 187.40625 76.691406 L 153.484375 96.308594 L 153.484375 107.3125 L 187.40625 87.695312 L 206.4375 76.691406 L 249.875 101.808594 L 259.390625 107.3125 L 259.390625 96.308594 L 206.4375 65.6875 " fill-opacity="1" fill-rule="nonzero"/></g><g clip-path="url(#e6112e4651)"><path fill="#6525e4" d="M 124.941406 163.050781 L 134.453125 168.550781 L 168.378906 188.167969 L 177.894531 182.667969 L 149.351562 166.160156 L 143.96875 163.050781 L 124.941406 152.046875 L 124.941406 90.804688 L 115.425781 96.308594 L 115.425781 157.546875 L 124.941406 163.050781 " fill-opacity="1" fill-rule="nonzero"/></g><g clip-path="url(#5f502f35dd)"><path fill="#6525e4" d="M 240.359375 129.316406 L 230.847656 123.816406 L 230.847656 185.058594 L 187.40625 210.175781 L 177.894531 215.679688 L 187.40625 221.179688 L 240.359375 190.558594 L 240.359375 129.316406 " fill-opacity="1" fill-rule="nonzero"/></g><g clip-path="url(#3564932d06)"><path fill="#6525e4" d="M 134.453125 146.542969 L 143.96875 152.046875 L 143.96875 90.804688 L 187.40625 65.6875 L 196.921875 60.183594 L 187.40625 54.683594 L 134.453125 85.304688 L 134.453125 146.542969 " fill-opacity="1" fill-rule="nonzero"/></g><g clip-path="url(#f9849bae0c)"><path fill="#000000" d="M 166.203125 114.332031 L 172.757812 120.347656 L 171.492188 124.429688 L 167.050781 125.589844 L 160.496094 119.566406 L 157.53125 122.289062 L 165.0625 132.261719 L 173.945312 130.710938 L 205.125 161.195312 C 209.902344 165.613281 216.34375 158.988281 211.875 155.214844 L 178.5625 126.28125 L 180.589844 118.03125 L 169.390625 111.402344 Z M 207.210938 157.0625 C 208.0625 156.28125 209.4375 156.28125 210.285156 157.0625 C 211.136719 157.839844 211.136719 159.105469 210.285156 159.886719 C 209.4375 160.660156 208.0625 160.660156 207.210938 159.886719 C 206.359375 159.105469 206.359375 157.839844 207.210938 157.0625 Z M 207.210938 157.0625 " fill-opacity="1" fill-rule="nonzero"/><path fill="#000000" d="M 166.203125 114.332031 L 172.757812 120.347656 L 171.492188 124.429688 L 167.050781 125.589844 L 160.496094 119.566406 L 157.53125 122.289062 L 165.0625 132.261719 L 173.945312 130.710938 L 205.125 161.195312 C 209.902344 165.613281 216.34375 158.988281 211.875 155.214844 L 178.5625 126.28125 L 180.589844 118.03125 L 169.390625 111.402344 Z M 207.210938 157.0625 C 208.0625 156.28125 209.4375 156.28125 210.285156 157.0625 C 211.136719 157.839844 211.136719 159.105469 210.285156 159.886719 C 209.4375 160.660156 208.0625 160.660156 207.210938 159.886719 C 206.359375 159.105469 206.359375 157.839844 207.210938 157.0625 Z M 207.210938 157.0625 " fill-opacity="1" fill-rule="nonzero"/><path fill="#000000" d="M 166.203125 114.332031 L 172.757812 120.347656 L 171.492188 124.429688 L 167.050781 125.589844 L 160.496094 119.566406 L 157.53125 122.289062 L 165.0625 132.261719 L 173.945312 130.710938 L 205.125 161.195312 C 209.902344 165.613281 216.34375 158.988281 211.875 155.214844 L 178.5625 126.28125 L 180.589844 118.03125 L 169.390625 111.402344 Z M 207.210938 157.0625 C 208.0625 156.28125 209.4375 156.28125 210.285156 157.0625 C 211.136719 157.839844 211.136719 159.105469 210.285156 159.886719 C 209.4375 160.660156 208.0625 160.660156 207.210938 159.886719 C 206.359375 159.105469 206.359375 157.839844 207.210938 157.0625 Z M 207.210938 157.0625 " fill-opacity="1" fill-rule="nonzero"/></g><g clip-path="url(#dedeb7a666)"><g clip-path="url(#99b414b183)"><path fill="#000000" d="M 166.203125 114.332031 L 172.757812 120.347656 L 171.492188 124.429688 L 167.050781 125.589844 L 160.496094 119.566406 L 157.53125 122.289062 L 165.0625 132.261719 L 173.945312 130.710938 L 205.125 161.195312 C 209.902344 165.613281 216.34375 158.988281 211.875 155.214844 L 178.5625 126.28125 L 180.589844 118.03125 L 169.390625 111.402344 Z M 207.210938 157.0625 C 208.0625 156.28125 209.4375 156.28125 210.285156 157.0625 C 211.136719 157.839844 211.136719 159.105469 210.285156 159.886719 C 209.4375 160.660156 208.0625 160.660156 207.210938 159.886719 C 206.359375 159.105469 206.359375 157.839844 207.210938 157.0625 Z M 207.210938 157.0625 " fill-opacity="1" fill-rule="nonzero"/></g></g><g clip-path="url(#a575f67b0d)"><path fill="#000000" d="M 167.167969 113.496094 L 173.972656 119.710938 L 172.289062 125.144531 L 166.75 126.664062 L 159.882812 120.277344 L 157.488281 122.386719 L 164.675781 131.652344 L 174.234375 129.730469 L 205.855469 160.5625 C 209.648438 164.417969 216.074219 159.320312 211.492188 155.171875 L 177.644531 125.855469 L 179.597656 117.878906 L 169.5 111.359375 Z M 207.625 156.84375 C 208.46875 156.066406 209.96875 155.914062 210.8125 156.703125 C 211.671875 157.480469 212.359375 158.855469 211.140625 160.347656 C 210.128906 161.273438 208.511719 161.238281 207.5 160.234375 C 206.648438 159.453125 206.765625 157.632812 207.625 156.84375 Z M 207.625 156.84375 " fill-opacity="1" fill-rule="nonzero"/></g><path fill="#000000" d="M 167.101562 113.507812 L 178.972656 124.492188 L 180.601562 118.050781 L 169.421875 111.359375 Z M 167.101562 113.507812 " fill-opacity="1" fill-rule="nonzero"/><path fill="#000000" d="M 190.648438 136.78125 L 192.988281 138.769531 C 193.183594 140.777344 192.621094 141.382812 189.027344 144.179688 L 184.675781 139.894531 L 190.640625 136.78125 Z M 190.648438 136.78125 " fill-opacity="1" fill-rule="nonzero"/><g clip-path="url(#81080529d2)"><path fill="#000000" d="M 183.089844 111.917969 L 183.472656 111.992188 C 187.945312 110.625 197.984375 116.003906 195.746094 120.800781 C 195.179688 121.550781 195.277344 122.890625 195.960938 123.730469 L 183.40625 135.261719 C 182.703125 134.617188 181.140625 134.628906 180.421875 135.261719 L 159.664062 153.558594 C 157.773438 155.226562 159.261719 156.644531 160.058594 157.390625 L 163.785156 160.808594 C 164.597656 161.554688 166.746094 162.558594 168.277344 161.070312 L 187.863281 142.109375 C 188.546875 141.449219 188.554688 140.035156 187.863281 139.382812 C 187.863281 139.382812 187.871094 139.375 187.863281 139.375 L 200.46875 127.804688 C 201.796875 128.90625 203.054688 129 204.246094 128.703125 C 206.546875 128.125 207.832031 130.191406 209.210938 131.703125 L 208.585938 132.265625 C 207.667969 133.121094 207.753906 134.5625 208.785156 135.507812 C 209.816406 136.457031 211.390625 136.535156 212.3125 135.691406 L 216.429688 131.914062 C 217.347656 131.058594 217.261719 129.617188 216.226562 128.675781 C 215.296875 127.816406 213.945312 127.703125 213.003906 128.316406 C 210.179688 125.410156 211.664062 124.972656 207.941406 121.183594 L 200.964844 114.640625 C 195.9375 110.113281 189.414062 110.117188 183.089844 111.917969 Z M 183.089844 111.917969 " fill-opacity="1" fill-rule="nonzero"/><path fill="#000000" d="M 183.089844 111.917969 L 183.472656 111.992188 C 187.945312 110.625 197.984375 116.003906 195.746094 120.800781 C 195.179688 121.550781 195.277344 122.890625 195.960938 123.730469 L 183.40625 135.261719 C 182.703125 134.617188 181.140625 134.628906 180.421875 135.261719 L 159.664062 153.558594 C 157.773438 155.226562 159.261719 156.644531 160.058594 157.390625 L 163.785156 160.808594 C 164.597656 161.554688 166.746094 162.558594 168.277344 161.070312 L 187.863281 142.109375 C 188.546875 141.449219 188.554688 140.035156 187.863281 139.382812 C 187.863281 139.382812 187.871094 139.375 187.863281 139.375 L 200.46875 127.804688 C 201.796875 128.90625 203.054688 129 204.246094 128.703125 C 206.546875 128.125 207.832031 130.191406 209.210938 131.703125 L 208.585938 132.265625 C 207.667969 133.121094 207.753906 134.5625 208.785156 135.507812 C 209.816406 136.457031 211.390625 136.535156 212.3125 135.691406 L 216.429688 131.914062 C 217.347656 131.058594 217.261719 129.617188 216.226562 128.675781 C 215.296875 127.816406 213.945312 127.703125 213.003906 128.316406 C 210.179688 125.410156 211.664062 124.972656 207.941406 121.183594 L 200.964844 114.640625 C 195.9375 110.113281 189.414062 110.117188 183.089844 111.917969 Z M 183.089844 111.917969 " fill-opacity="1" fill-rule="nonzero"/></g><path fill="#000000" d="M 196.808594 122.949219 L 181.910156 136.632812 L 186.378906 140.734375 L 201.277344 127.058594 Z M 196.808594 122.949219 " fill-opacity="1" fill-rule="nonzero"/><path fill="#000000" d="M 199.851562 125.742188 L 184.949219 139.421875 L 186.378906 140.734375 L 201.277344 127.058594 Z M 199.851562 125.742188 " fill-opacity="1" fill-rule="nonzero"/><path fill="#000000" d="M 198.601562 123.550781 L 183.761719 137.175781 L 185.679688 138.9375 L 200.136719 124.960938 Z M 198.601562 123.550781 " fill-opacity="1" fill-rule="nonzero"/><g clip-path="url(#c91b9efc87)"><path fill="#000000" d="M 183.089844 111.917969 L 183.472656 111.992188 C 187.945312 110.625 197.984375 116.007812 195.746094 120.800781 C 195.179688 121.554688 195.277344 122.890625 195.960938 123.730469 L 200.46875 127.808594 C 201.796875 128.90625 203.050781 129 204.246094 128.703125 C 206.546875 128.132812 207.828125 130.191406 209.210938 131.703125 L 208.585938 132.265625 C 207.667969 133.121094 207.753906 134.5625 208.785156 135.511719 C 209.816406 136.457031 211.390625 136.535156 212.3125 135.691406 L 216.429688 131.914062 C 217.347656 131.058594 217.261719 129.617188 216.226562 128.675781 C 215.296875 127.816406 213.945312 127.703125 213.003906 128.316406 C 210.179688 125.410156 211.664062 124.972656 207.941406 121.1875 L 200.964844 114.640625 C 195.9375 110.113281 189.414062 110.121094 183.089844 111.917969 Z M 183.089844 111.917969 " fill-opacity="1" fill-rule="nonzero"/></g><g clip-path="url(#8021ab87ad)"><path fill="#000000" d="M 213.003906 128.316406 C 210.179688 125.40625 211.660156 124.972656 207.9375 121.183594 L 200.960938 114.636719 C 198.082031 112.046875 194.707031 110.941406 191.167969 110.800781 L 211.972656 130.09375 L 213.480469 128.828125 L 213 128.316406 Z M 213.003906 128.316406 " fill-opacity="1" fill-rule="nonzero"/></g><path fill="#000000" d="M 196.066406 119.351562 C 196.089844 119.816406 195.976562 120.28125 195.738281 120.800781 C 195.179688 121.554688 195.277344 122.890625 195.960938 123.730469 L 200.46875 127.804688 C 201.796875 128.90625 203.050781 129 204.246094 128.703125 C 204.792969 128.550781 205.289062 128.578125 205.753906 128.703125 C 207.171875 129.0625 196.0625 119.15625 196.066406 119.304688 Z M 196.066406 119.351562 " fill-opacity="1" fill-rule="nonzero"/><path fill="#000000" d="M 183.40625 135.261719 C 182.703125 134.617188 181.140625 134.628906 180.421875 135.261719 L 159.667969 153.558594 C 157.773438 155.226562 159.25 156.644531 160.0625 157.390625 L 163.785156 160.8125 C 164.597656 161.554688 166.75 162.558594 168.277344 161.070312 L 187.867188 142.109375 C 188.546875 141.449219 188.554688 140.035156 187.867188 139.382812 C 187.867188 139.382812 187.871094 139.375 187.867188 139.375 L 183.410156 135.261719 Z M 183.40625 135.261719 " fill-opacity="1" fill-rule="nonzero"/><path fill="#000000" d="M 160.054688 157.386719 L 163.777344 160.8125 C 164.59375 161.554688 166.675781 162.617188 168.203125 161.140625 L 187.871094 142.105469 C 188.550781 141.441406 188.574219 140.015625 187.871094 139.375 L 183.402344 135.265625 Z M 160.054688 157.386719 " fill-opacity="1" fill-rule="nonzero"/><path fill="#000000" d="M 180.761719 136.867188 L 161.089844 154.539062 C 160.273438 155.265625 160.550781 156.28125 161.140625 156.8125 L 163.230469 158.65625 L 184.667969 138.398438 L 182.683594 136.6875 C 182.257812 136.316406 181.265625 136.425781 180.761719 136.867188 Z M 180.761719 136.867188 " fill-opacity="1" fill-rule="nonzero"/><g clip-path="url(#5e9ce51803)"><g clip-path="url(#3ae722e8d9)"><path fill="#000000" d="M 183.089844 111.917969 L 183.472656 111.992188 C 187.945312 110.625 197.984375 116.003906 195.746094 120.800781 C 195.179688 121.550781 195.277344 122.890625 195.960938 123.730469 L 183.40625 135.261719 C 182.703125 134.617188 181.140625 134.628906 180.421875 135.261719 L 159.664062 153.558594 C 157.773438 155.226562 159.261719 156.644531 160.058594 157.390625 L 163.785156 160.808594 C 164.597656 161.554688 166.746094 162.558594 168.277344 161.070312 L 187.863281 142.109375 C 188.546875 141.449219 188.554688 140.035156 187.863281 139.382812 C 187.863281 139.382812 187.871094 139.375 187.863281 139.375 L 200.46875 127.804688 C 201.796875 128.90625 203.054688 129 204.246094 128.703125 C 206.546875 128.125 207.832031 130.191406 209.210938 131.703125 L 208.585938 132.265625 C 207.667969 133.121094 207.753906 134.5625 208.785156 135.507812 C 209.816406 136.457031 211.390625 136.535156 212.3125 135.691406 L 216.429688 131.914062 C 217.347656 131.058594 217.261719 129.617188 216.226562 128.675781 C 215.296875 127.816406 213.945312 127.703125 213.003906 128.316406 C 210.179688 125.410156 211.664062 124.972656 207.941406 121.183594 L 200.964844 114.640625 C 195.9375 110.113281 189.414062 110.117188 183.089844 111.917969 Z M 183.089844 111.917969 " fill-opacity="1" fill-rule="nonzero"/></g></g><path fill="#000000" d="M 215.796875 129.226562 C 216.558594 129.898438 216.707031 130.824219 215.652344 131.71875 L 213.695312 133.40625 C 212.644531 134.3125 209.890625 131.894531 210.9375 130.992188 L 212.902344 129.308594 C 213.949219 128.402344 215.03125 128.558594 215.796875 129.226562 Z M 215.796875 129.226562 " fill-opacity="1" fill-rule="nonzero"/><g fill="#8c52ff" fill-opacity="1"><g transform="translate(142.090542, 254.66717)"><g><path d="M 9.402344 0.242188 C 13.785156 0.242188 17.222656 -2.402344 17.222656 -5.8125 L 17.222656 -18.257812 L 12.566406 -18.257812 L 12.566406 -6.695312 C 12.566406 -5.082031 11.167969 -3.804688 9.402344 -3.804688 C 7.636719 -3.804688 6.238281 -5.082031 6.238281 -6.695312 L 6.238281 -18.257812 L 1.582031 -18.257812 L 1.582031 -5.8125 C 1.582031 -2.402344 5.019531 0.242188 9.402344 0.242188 Z M 9.402344 0.242188 "/></g></g></g><g fill="#8c52ff" fill-opacity="1"><g transform="translate(161.380078, 254.66717)"><g><path d="M 14.789062 -18.257812 L 14.789062 -7.089844 L 6.542969 -18.257812 L 1.671875 -18.257812 L 1.671875 0 L 6.328125 0 L 6.328125 -11.199219 L 14.546875 0 L 19.445312 0 L 19.445312 -18.257812 Z M 14.789062 -18.257812 "/></g></g></g><g fill="#8c52ff" fill-opacity="1"><g transform="translate(182.981893, 254.66717)"><g><path d="M 1.671875 0 L 8.003906 0 C 13.023438 0 17.132812 -4.078125 17.132812 -9.128906 C 17.132812 -14.179688 13.023438 -18.257812 8.003906 -18.257812 L 1.671875 -18.257812 Z M 6.328125 -4.046875 L 6.328125 -14.210938 L 8.003906 -14.210938 C 10.527344 -14.210938 12.507812 -11.988281 12.507812 -9.128906 C 12.507812 -6.269531 10.527344 -4.046875 8.003906 -4.046875 Z M 6.328125 -4.046875 "/></g></g></g><g fill="#8c52ff" fill-opacity="1"><g transform="translate(201.632505, 254.66717)"><g><path d="M 13.144531 -14.210938 L 13.144531 -18.257812 L 1.824219 -18.257812 L 1.824219 0 L 13.144531 0 L 13.144531 -4.046875 L 6.480469 -4.046875 L 6.480469 -7.121094 L 12.113281 -7.121094 L 12.113281 -11.136719 L 6.480469 -11.136719 L 6.480469 -14.210938 Z M 13.144531 -14.210938 "/></g></g></g><g fill="#8c52ff" fill-opacity="1"><g transform="translate(216.297461, 254.66717)"><g><path d="M 11.835938 -7.242188 C 13.9375 -7.972656 15.398438 -10.011719 15.398438 -12.507812 C 15.398438 -15.671875 13.054688 -18.257812 9.800781 -18.257812 L 1.671875 -18.257812 L 1.671875 0 L 6.328125 0 L 6.328125 -6.695312 L 7.394531 -6.695312 L 11.65625 0 L 16.890625 0 Z M 9.039062 -10.4375 L 6.328125 -10.4375 L 6.328125 -14.210938 L 9.039062 -14.210938 C 10.132812 -14.210938 10.925781 -13.421875 10.925781 -12.324219 C 10.925781 -11.230469 10.132812 -10.4375 9.039062 -10.4375 Z M 9.039062 -10.4375 "/></g></g></g><g fill="#8c52ff" fill-opacity="1"><g transform="translate(81.176483, 278.667169)"><g><path d="M 10.40625 0.242188 C 14.027344 0.242188 17.195312 -1.824219 18.746094 -4.867188 L 14.730469 -6.90625 C 13.9375 -5.324219 12.355469 -4.320312 10.40625 -4.320312 C 7.636719 -4.320312 5.570312 -6.359375 5.570312 -9.128906 C 5.570312 -11.898438 7.636719 -13.9375 10.40625 -13.9375 C 12.355469 -13.9375 13.9375 -12.933594 14.730469 -11.351562 L 18.746094 -13.390625 C 17.195312 -16.433594 14.027344 -18.503906 10.40625 -18.503906 C 5.203125 -18.503906 1.035156 -14.300781 1.035156 -9.128906 C 1.035156 -3.957031 5.203125 0.242188 10.40625 0.242188 Z M 10.40625 0.242188 "/></g></g></g><g fill="#8c52ff" fill-opacity="1"><g transform="translate(101.135361, 278.667169)"><g><path d="M 10.40625 0.242188 C 15.582031 0.242188 19.78125 -3.957031 19.78125 -9.128906 C 19.78125 -14.300781 15.582031 -18.503906 10.40625 -18.503906 C 5.203125 -18.503906 1.035156 -14.300781 1.035156 -9.128906 C 1.035156 -3.957031 5.203125 0.242188 10.40625 0.242188 Z M 10.40625 -4.320312 C 7.636719 -4.320312 5.570312 -6.359375 5.570312 -9.128906 C 5.570312 -11.898438 7.636719 -13.9375 10.40625 -13.9375 C 13.144531 -13.9375 15.214844 -11.898438 15.214844 -9.128906 C 15.214844 -6.359375 13.144531 -4.320312 10.40625 -4.320312 Z M 10.40625 -4.320312 "/></g></g></g><g fill="#8c52ff" fill-opacity="1"><g transform="translate(122.402505, 278.667169)"><g><path d="M 14.789062 -18.257812 L 14.789062 -7.089844 L 6.542969 -18.257812 L 1.671875 -18.257812 L 1.671875 0 L 6.328125 0 L 6.328125 -11.199219 L 14.546875 0 L 19.445312 0 L 19.445312 -18.257812 Z M 14.789062 -18.257812 "/></g></g></g><g fill="#8c52ff" fill-opacity="1"><g transform="translate(144.00432, 278.667169)"><g><path d="M 7.636719 0.242188 C 11.136719 0.242188 14.152344 -1.796875 14.152344 -5.296875 C 14.152344 -12.234375 5.875 -10.5 5.875 -13.269531 C 5.875 -14.058594 6.480469 -14.425781 7.210938 -14.425781 C 8.125 -14.425781 9.128906 -13.875 10.101562 -12.84375 L 13.144531 -15.792969 C 11.714844 -17.46875 9.554688 -18.503906 7.273438 -18.503906 C 4.382812 -18.503906 1.1875 -16.828125 1.1875 -12.933594 C 1.1875 -6.605469 9.496094 -8.125 9.496094 -5.355469 C 9.496094 -4.625 8.886719 -4.109375 7.699219 -4.109375 C 6.117188 -4.109375 4.839844 -4.960938 4.199219 -6.328125 L 0.394531 -3.957031 C 1.613281 -1.644531 4.289062 0.242188 7.636719 0.242188 Z M 7.636719 0.242188 "/></g></g></g><g fill="#8c52ff" fill-opacity="1"><g transform="translate(159.3082, 278.667169)"><g><path d="M 13.296875 -18.257812 L -0.273438 -18.257812 L -0.273438 -14.210938 L 4.199219 -14.210938 L 4.199219 0 L 8.824219 0 L 8.824219 -14.210938 L 13.296875 -14.210938 Z M 13.296875 -18.257812 "/></g></g></g><g fill="#8c52ff" fill-opacity="1"><g transform="translate(172.817017, 278.667169)"><g><path d="M 11.835938 -7.242188 C 13.9375 -7.972656 15.398438 -10.011719 15.398438 -12.507812 C 15.398438 -15.671875 13.054688 -18.257812 9.800781 -18.257812 L 1.671875 -18.257812 L 1.671875 0 L 6.328125 0 L 6.328125 -6.695312 L 7.394531 -6.695312 L 11.65625 0 L 16.890625 0 Z M 9.039062 -10.4375 L 6.328125 -10.4375 L 6.328125 -14.210938 L 9.039062 -14.210938 C 10.132812 -14.210938 10.925781 -13.421875 10.925781 -12.324219 C 10.925781 -11.230469 10.132812 -10.4375 9.039062 -10.4375 Z M 9.039062 -10.4375 "/></g></g></g><g fill="#8c52ff" fill-opacity="1"><g transform="translate(189.91596, 278.667169)"><g><path d="M 9.402344 0.242188 C 13.785156 0.242188 17.222656 -2.402344 17.222656 -5.8125 L 17.222656 -18.257812 L 12.566406 -18.257812 L 12.566406 -6.695312 C 12.566406 -5.082031 11.167969 -3.804688 9.402344 -3.804688 C 7.636719 -3.804688 6.238281 -5.082031 6.238281 -6.695312 L 6.238281 -18.257812 L 1.582031 -18.257812 L 1.582031 -5.8125 C 1.582031 -2.402344 5.019531 0.242188 9.402344 0.242188 Z M 9.402344 0.242188 "/></g></g></g><g fill="#8c52ff" fill-opacity="1"><g transform="translate(209.20549, 278.667169)"><g><path d="M 10.40625 0.242188 C 14.027344 0.242188 17.195312 -1.824219 18.746094 -4.867188 L 14.730469 -6.90625 C 13.9375 -5.324219 12.355469 -4.320312 10.40625 -4.320312 C 7.636719 -4.320312 5.570312 -6.359375 5.570312 -9.128906 C 5.570312 -11.898438 7.636719 -13.9375 10.40625 -13.9375 C 12.355469 -13.9375 13.9375 -12.933594 14.730469 -11.351562 L 18.746094 -13.390625 C 17.195312 -16.433594 14.027344 -18.503906 10.40625 -18.503906 C 5.203125 -18.503906 1.035156 -14.300781 1.035156 -9.128906 C 1.035156 -3.957031 5.203125 0.242188 10.40625 0.242188 Z M 10.40625 0.242188 "/></g></g></g><g fill="#8c52ff" fill-opacity="1"><g transform="translate(229.164374, 278.667169)"><g><path d="M 13.296875 -18.257812 L -0.273438 -18.257812 L -0.273438 -14.210938 L 4.199219 -14.210938 L 4.199219 0 L 8.824219 0 L 8.824219 -14.210938 L 13.296875 -14.210938 Z M 13.296875 -18.257812 "/></g></g></g><g fill="#8c52ff" fill-opacity="1"><g transform="translate(242.673185, 278.667169)"><g><path d="M 1.824219 0 L 6.480469 0 L 6.480469 -18.257812 L 1.824219 -18.257812 Z M 1.824219 0 "/></g></g></g><g fill="#8c52ff" fill-opacity="1"><g transform="translate(251.43572, 278.667169)"><g><path d="M 10.40625 0.242188 C 15.582031 0.242188 19.78125 -3.957031 19.78125 -9.128906 C 19.78125 -14.300781 15.582031 -18.503906 10.40625 -18.503906 C 5.203125 -18.503906 1.035156 -14.300781 1.035156 -9.128906 C 1.035156 -3.957031 5.203125 0.242188 10.40625 0.242188 Z M 10.40625 -4.320312 C 7.636719 -4.320312 5.570312 -6.359375 5.570312 -9.128906 C 5.570312 -11.898438 7.636719 -13.9375 10.40625 -13.9375 C 13.144531 -13.9375 15.214844 -11.898438 15.214844 -9.128906 C 15.214844 -6.359375 13.144531 -4.320312 10.40625 -4.320312 Z M 10.40625 -4.320312 "/></g></g></g><g fill="#8c52ff" fill-opacity="1"><g transform="translate(272.702869, 278.667169)"><g><path d="M 14.789062 -18.257812 L 14.789062 -7.089844 L 6.542969 -18.257812 L 1.671875 -18.257812 L 1.671875 0 L 6.328125 0 L 6.328125 -11.199219 L 14.546875 0 L 19.445312 0 L 19.445312 -18.257812 Z M 14.789062 -18.257812 "/></g></g></g></svg>